<svg width="269" height="29" viewBox="0 0 269 29" fill="none" xmlns="http://www.w3.org/2000/svg">
<path d="M0.129237 19.6984L0.129192 15.7544L21.5619 24.319L21.5619 28.263L0.129237 19.6984Z" fill="#CAC6B3"/>
<path d="M1.44113 15.8603L1.44108 11.9163L22.8738 20.4809L22.8738 24.4248L1.44113 15.8603Z" fill="#FFF8DE"/>
<path d="M0.129237 15.8374L0.129192 20.4713L21.5619 10.4085L21.5619 5.77456L0.129237 15.8374Z" fill="#CAC6B3"/>
<path d="M1.44113 11.1718L1.44108 15.8057L22.8738 5.74293L22.8738 1.10904L1.44113 11.1718Z" fill="#FFF8DE"/>
<path d="M268.558 8.56453L268.558 12.5085L247.126 3.94393L247.126 -2.34435e-05L268.558 8.56453Z" fill="#CAC6B3"/>
<path d="M267.246 12.4027L267.247 16.3466L245.814 7.78206L245.814 3.83811L267.246 12.4027Z" fill="#FFF8DE"/>
<path d="M268.558 12.4256L268.558 7.79167L247.126 17.8545L247.126 22.4884L268.558 12.4256Z" fill="#CAC6B3"/>
<path d="M267.246 17.0911L267.247 12.4572L245.814 22.52L245.814 27.1539L267.246 17.0911Z" fill="#FFF8DE"/>
<path d="M35.6207 23.7283C33.8518 23.7283 32.5112 23.3373 31.5988 22.5552C30.705 21.7546 30.2581 20.5815 30.2581 19.036V12.5282H27.2695V8.75758H30.2581V4.95903L34.7828 3.98146V8.75758H38.9165V12.5282H34.7828V18.1422C34.7828 18.7939 34.9225 19.2594 35.2018 19.5387C35.4997 19.7994 36.0118 19.9298 36.738 19.9298C37.1104 19.9298 37.4455 19.9111 37.7435 19.8739C38.06 19.818 38.4045 19.7343 38.7769 19.6225V23.2814C38.3672 23.4118 37.8459 23.5142 37.2128 23.5887C36.5797 23.6818 36.049 23.7283 35.6207 23.7283Z" fill="#FFF8DE"/>
<path d="M49.2576 23.8121C48.1031 23.8121 47.079 23.5607 46.1852 23.058C45.3101 22.5552 44.6211 21.857 44.1184 20.9632C43.6156 20.0508 43.3643 19.0174 43.3643 17.8629V8.75758H47.889V17.2484C47.889 18.0491 48.1311 18.7008 48.6152 19.2036C49.1179 19.6877 49.7696 19.9298 50.5703 19.9298C51.1476 19.9298 51.6596 19.8274 52.1065 19.6225C52.5534 19.4177 52.9258 19.1291 53.2237 18.7567V8.75758H57.7485V23.5328H53.2237V22.5273C52.1065 23.3838 50.7845 23.8121 49.2576 23.8121Z" fill="#FFF8DE"/>
<path d="M70.4939 23.8121C69.0229 23.8121 67.6916 23.4769 66.4999 22.8066C65.3268 22.1363 64.3958 21.2239 63.7068 20.0694C63.0179 18.8963 62.6734 17.5929 62.6734 16.1592C62.6734 14.7068 63.0179 13.4033 63.7068 12.2489C64.3958 11.0944 65.3268 10.182 66.4999 9.5117C67.6916 8.82275 69.0229 8.47827 70.4939 8.47827C71.7042 8.47827 72.8587 8.72034 73.9573 9.20447C75.0559 9.66997 75.9869 10.3403 76.7504 11.2155L73.9852 14.0923C73.4639 13.4964 72.9332 13.0682 72.3932 12.8075C71.8532 12.5282 71.2574 12.3885 70.6056 12.3885C69.9539 12.3885 69.3674 12.5561 68.846 12.8913C68.3247 13.2078 67.915 13.6547 67.6171 14.232C67.3192 14.7906 67.1702 15.433 67.1702 16.1592C67.1702 16.8667 67.3192 17.5091 67.6171 18.0864C67.9336 18.645 68.3619 19.0919 68.9019 19.427C69.4419 19.7436 70.047 19.9018 70.7174 19.9018C71.3318 19.9018 71.8998 19.7715 72.4211 19.5108C72.9425 19.2501 73.4452 18.8498 73.9294 18.3098L76.6107 21.1029C75.8659 21.9594 74.9535 22.6297 73.8735 23.1138C72.7935 23.5794 71.667 23.8121 70.4939 23.8121Z" fill="#FFF8DE"/>
<path d="M85.9133 23.7842C84.8706 23.7842 83.9395 23.5887 83.1202 23.1976C82.3196 22.8066 81.6865 22.2666 81.221 21.5777C80.7741 20.8887 80.5506 20.0974 80.5506 19.2036C80.5506 17.7884 81.0813 16.6991 82.1427 15.9357C83.2227 15.1537 84.7216 14.7626 86.6395 14.7626C87.7939 14.7626 88.9112 14.9023 89.9911 15.1816V14.4554C89.9911 13.7106 89.7491 13.1613 89.2649 12.8075C88.7994 12.4351 88.1012 12.2489 87.1702 12.2489C86.5929 12.2489 85.9412 12.342 85.215 12.5282C84.5075 12.7144 83.6695 13.0123 82.7013 13.422L81.0813 10.0982C82.2916 9.55825 83.4554 9.15791 84.5726 8.89723C85.7085 8.61792 86.8443 8.47827 87.9802 8.47827C90.0284 8.47827 91.6204 8.97171 92.7563 9.95859C93.8921 10.9268 94.46 12.2954 94.46 14.0644V23.5328H89.9911V22.639C89.3953 23.0487 88.7622 23.3466 88.0919 23.5328C87.4402 23.7004 86.714 23.7842 85.9133 23.7842ZM84.8519 19.1198C84.8519 19.5853 85.0568 19.9484 85.4664 20.2091C85.8761 20.4698 86.444 20.6001 87.1702 20.6001C87.7102 20.6001 88.2129 20.5442 88.6784 20.4325C89.1625 20.3208 89.6001 20.1439 89.9911 19.9018V18.0026C89.5629 17.8908 89.1253 17.8071 88.6784 17.7512C88.2315 17.6953 87.7753 17.6674 87.3098 17.6674C86.5278 17.6674 85.9226 17.7977 85.4943 18.0584C85.0661 18.3005 84.8519 18.6543 84.8519 19.1198Z" fill="#FFF8DE"/>
<path d="M108.194 23.5328V3.98146L112.719 3.2832V9.79101C113.874 8.97171 115.177 8.56206 116.629 8.56206C118.045 8.56206 119.32 8.90654 120.456 9.59549C121.592 10.2658 122.495 11.1782 123.165 12.3327C123.836 13.4685 124.171 14.744 124.171 16.1592C124.171 17.5743 123.826 18.8591 123.137 20.0136C122.467 21.1494 121.545 22.0525 120.372 22.7228C119.218 23.3932 117.924 23.7283 116.49 23.7283C115.801 23.7283 115.131 23.6445 114.479 23.4769C113.827 23.2907 113.222 23.0301 112.663 22.6949V23.5328H108.194ZM115.847 19.9018C116.592 19.9018 117.253 19.7436 117.83 19.427C118.408 19.0919 118.864 18.645 119.199 18.0864C119.553 17.5091 119.73 16.8667 119.73 16.1592C119.73 15.4516 119.553 14.8185 119.199 14.2599C118.864 13.6827 118.398 13.2358 117.803 12.9192C117.225 12.5841 116.574 12.4165 115.847 12.4165C115.214 12.4165 114.637 12.5189 114.116 12.7237C113.594 12.9099 113.129 13.1985 112.719 13.5896V18.7567C113.11 19.1105 113.576 19.3898 114.116 19.5946C114.656 19.7994 115.233 19.9018 115.847 19.9018Z" fill="#FFF8DE"/>
<path d="M133.955 23.7842C132.913 23.7842 131.982 23.5887 131.162 23.1976C130.362 22.8066 129.729 22.2666 129.263 21.5777C128.816 20.8887 128.593 20.0974 128.593 19.2036C128.593 17.7884 129.123 16.6991 130.185 15.9357C131.265 15.1537 132.764 14.7626 134.682 14.7626C135.836 14.7626 136.953 14.9023 138.033 15.1816V14.4554C138.033 13.7106 137.791 13.1613 137.307 12.8075C136.841 12.4351 136.143 12.2489 135.212 12.2489C134.635 12.2489 133.983 12.342 133.257 12.5282C132.549 12.7144 131.712 13.0123 130.743 13.422L129.123 10.0982C130.334 9.55825 131.497 9.15791 132.615 8.89723C133.75 8.61792 134.886 8.47827 136.022 8.47827C138.07 8.47827 139.662 8.97171 140.798 9.95859C141.934 10.9268 142.502 12.2954 142.502 14.0644V23.5328H138.033V22.639C137.437 23.0487 136.804 23.3466 136.134 23.5328C135.482 23.7004 134.756 23.7842 133.955 23.7842ZM132.894 19.1198C132.894 19.5853 133.099 19.9484 133.508 20.2091C133.918 20.4698 134.486 20.6001 135.212 20.6001C135.752 20.6001 136.255 20.5442 136.72 20.4325C137.205 20.3208 137.642 20.1439 138.033 19.9018V18.0026C137.605 17.8908 137.167 17.8071 136.72 17.7512C136.274 17.6953 135.817 17.6674 135.352 17.6674C134.57 17.6674 133.965 17.7977 133.536 18.0584C133.108 18.3005 132.894 18.6543 132.894 19.1198Z" fill="#FFF8DE"/>
<path d="M147.984 23.5328V8.75758H152.509V10.2379C152.993 9.64204 153.561 9.19516 154.213 8.89723C154.865 8.58068 155.591 8.42241 156.392 8.42241C157.192 8.44103 157.76 8.56206 158.095 8.78551V12.7237C157.797 12.5747 157.462 12.463 157.09 12.3885C156.717 12.3141 156.336 12.2768 155.945 12.2768C155.237 12.2768 154.576 12.4444 153.962 12.7796C153.366 13.0961 152.882 13.5523 152.509 14.1482V23.5328H147.984Z" fill="#FFF8DE"/>
<path d="M169.575 23.8121C168.104 23.8121 166.772 23.4769 165.58 22.8066C164.407 22.1363 163.476 21.2239 162.787 20.0694C162.098 18.8963 161.754 17.5929 161.754 16.1592C161.754 14.7068 162.098 13.4033 162.787 12.2489C163.476 11.0944 164.407 10.182 165.58 9.5117C166.772 8.82275 168.104 8.47827 169.575 8.47827C170.785 8.47827 171.939 8.72034 173.038 9.20447C174.137 9.66997 175.068 10.3403 175.831 11.2155L173.066 14.0923C172.544 13.4964 172.014 13.0682 171.474 12.8075C170.934 12.5282 170.338 12.3885 169.686 12.3885C169.035 12.3885 168.448 12.5561 167.927 12.8913C167.405 13.2078 166.996 13.6547 166.698 14.232C166.4 14.7906 166.251 15.433 166.251 16.1592C166.251 16.8667 166.4 17.5091 166.698 18.0864C167.014 18.645 167.443 19.0919 167.982 19.427C168.522 19.7436 169.128 19.9018 169.798 19.9018C170.412 19.9018 170.98 19.7715 171.502 19.5108C172.023 19.2501 172.526 18.8498 173.01 18.3098L175.691 21.1029C174.947 21.9594 174.034 22.6297 172.954 23.1138C171.874 23.5794 170.748 23.8121 169.575 23.8121Z" fill="#FFF8DE"/>
<path d="M187.238 23.8121C185.73 23.8121 184.361 23.4769 183.132 22.8066C181.922 22.1177 180.963 21.196 180.256 20.0415C179.548 18.887 179.194 17.5929 179.194 16.1592C179.194 14.7254 179.529 13.4313 180.2 12.2768C180.889 11.1224 181.82 10.21 182.993 9.53963C184.166 8.85068 185.469 8.5062 186.903 8.5062C188.355 8.5062 189.64 8.85999 190.757 9.56756C191.875 10.2565 192.75 11.2061 193.383 12.4165C194.035 13.6268 194.36 15.014 194.36 16.5781V17.6953H183.831C184.035 18.1608 184.305 18.5705 184.641 18.9243C184.994 19.2781 185.413 19.5574 185.898 19.7622C186.382 19.9484 186.903 20.0415 187.462 20.0415C188.076 20.0415 188.635 19.9484 189.137 19.7622C189.64 19.5574 190.068 19.2781 190.422 18.9243L193.411 21.5777C192.48 22.3597 191.521 22.9276 190.534 23.2814C189.566 23.6352 188.467 23.8121 187.238 23.8121ZM183.747 14.5392H189.92C189.771 14.0551 189.538 13.6454 189.221 13.3102C188.923 12.9565 188.57 12.6865 188.16 12.5003C187.75 12.2954 187.303 12.193 186.819 12.193C186.316 12.193 185.86 12.2861 185.451 12.4723C185.041 12.6585 184.687 12.9285 184.389 13.2823C184.11 13.6175 183.896 14.0364 183.747 14.5392Z" fill="#FFF8DE"/>
<path d="M199.269 23.5328V3.98146L203.793 3.2832V23.5328H199.269Z" fill="#FFF8DE"/>
<path d="M216.717 23.8121C215.209 23.8121 213.85 23.4769 212.639 22.8066C211.429 22.1177 210.47 21.196 209.763 20.0415C209.055 18.887 208.701 17.5929 208.701 16.1592C208.701 14.7254 209.055 13.4313 209.763 12.2768C210.47 11.1037 211.429 10.182 212.639 9.5117C213.85 8.82275 215.209 8.47827 216.717 8.47827C218.226 8.47827 219.585 8.82275 220.795 9.5117C222.005 10.182 222.964 11.1037 223.672 12.2768C224.38 13.4313 224.733 14.7254 224.733 16.1592C224.733 17.5929 224.38 18.887 223.672 20.0415C222.964 21.196 222.005 22.1177 220.795 22.8066C219.585 23.4769 218.226 23.8121 216.717 23.8121ZM216.717 19.9018C217.406 19.9018 218.021 19.7343 218.561 19.3991C219.101 19.0639 219.529 18.617 219.845 18.0584C220.162 17.4812 220.32 16.8481 220.32 16.1592C220.32 15.4516 220.162 14.8185 219.845 14.2599C219.529 13.6827 219.091 13.2265 218.533 12.8913C217.993 12.5561 217.388 12.3885 216.717 12.3885C216.047 12.3885 215.432 12.5561 214.874 12.8913C214.334 13.2265 213.906 13.6827 213.589 14.2599C213.273 14.8185 213.114 15.4516 213.114 16.1592C213.114 16.8481 213.273 17.4812 213.589 18.0584C213.906 18.617 214.334 19.0639 214.874 19.3991C215.432 19.7343 216.047 19.9018 216.717 19.9018Z" fill="#FFF8DE"/>
<path d="M235.486 23.8121C234.089 23.8121 232.795 23.6538 231.604 23.3373C230.412 23.0021 229.378 22.518 228.503 21.8849L230.654 18.8405C231.585 19.3991 232.432 19.8087 233.196 20.0694C233.959 20.3115 234.713 20.4325 235.458 20.4325C236.203 20.4325 236.789 20.3301 237.218 20.1253C237.664 19.9018 237.888 19.6132 237.888 19.2594C237.888 18.9801 237.767 18.7567 237.525 18.5891C237.283 18.4029 236.901 18.2726 236.38 18.1981L233.447 17.7512C231.976 17.5277 230.849 17.0436 230.067 16.2988C229.304 15.5354 228.922 14.5485 228.922 13.3382C228.922 12.3327 229.174 11.4761 229.676 10.7686C230.198 10.0424 230.933 9.49308 231.883 9.12067C232.833 8.72965 233.968 8.53413 235.29 8.53413C236.37 8.53413 237.441 8.6831 238.502 8.98102C239.564 9.27895 240.551 9.72583 241.463 10.3217L239.312 13.2265C238.512 12.7609 237.748 12.4258 237.022 12.221C236.296 11.9975 235.57 11.8858 234.844 11.8858C234.266 11.8858 233.801 11.9882 233.447 12.193C233.093 12.3792 232.916 12.6306 232.916 12.9472C232.916 13.2451 233.047 13.4871 233.307 13.6733C233.568 13.8409 234.015 13.9713 234.648 14.0644L237.581 14.5113C239.033 14.7161 240.15 15.2002 240.932 15.9636C241.733 16.7085 242.133 17.6581 242.133 18.8126C242.133 19.7808 241.845 20.6373 241.268 21.3822C240.69 22.127 239.899 22.7228 238.893 23.1697C237.907 23.598 236.771 23.8121 235.486 23.8121Z" fill="#FFF8DE"/>
</svg>
