<svg width="267" height="28" viewBox="0 0 267 28" fill="none" xmlns="http://www.w3.org/2000/svg">
<path d="M22.8734 24.0515L22.8734 20.1072L12.1576 15.825L10.6322 15.2146L6.11755 17.3552L22.8734 24.0515ZM1.4408 15.4529L5.91541 13.3308L1.4408 11.5427L1.4408 15.4529Z" fill="#FFF8DE"/>
<path d="M1.44113 10.7981L1.44108 15.432L22.8738 5.36915L22.8738 0.735257L1.44113 10.7981Z" fill="#FFF8DE"/>
<path d="M244.126 1.94849V5.89282L254.842 10.175L256.367 10.7854L260.882 8.64478L244.126 1.94849ZM265.559 10.5471L261.084 12.6692L265.559 14.4573V10.5471Z" fill="#FFF8DE"/>
<path d="M265.558 15.2019L265.558 10.568L244.126 20.6309L244.126 25.2647L265.558 15.2019Z" fill="#FFF8DE"/>
<path d="M35.6207 23.5166C33.8518 23.5166 32.5112 23.1256 31.5988 22.3436C30.705 21.5429 30.2581 20.3698 30.2581 18.8243V12.3165H27.2695V8.54591H30.2581V4.74736L34.7828 3.76979V8.54591H38.9165V12.3165H34.7828V17.9305C34.7828 18.5823 34.9225 19.0478 35.2018 19.3271C35.4997 19.5878 36.0118 19.7181 36.738 19.7181C37.1104 19.7181 37.4455 19.6995 37.7435 19.6622C38.06 19.6064 38.4045 19.5226 38.7769 19.4109V23.0698C38.3672 23.2001 37.8459 23.3025 37.2128 23.377C36.5797 23.4701 36.049 23.5166 35.6207 23.5166Z" fill="#FFF8DE"/>
<path d="M49.2576 23.6004C48.1031 23.6004 47.079 23.3491 46.1852 22.8463C45.3101 22.3436 44.6211 21.6453 44.1184 20.7515C43.6156 19.8391 43.3643 18.8057 43.3643 17.6512V8.54591H47.889V17.0368C47.889 17.8374 48.1311 18.4892 48.6152 18.9919C49.1179 19.476 49.7696 19.7181 50.5703 19.7181C51.1475 19.7181 51.6596 19.6157 52.1065 19.4109C52.5534 19.206 52.9258 18.9174 53.2237 18.545V8.54591H57.7485V23.3211H53.2237V22.3156C52.1065 23.1722 50.7845 23.6004 49.2576 23.6004Z" fill="#FFF8DE"/>
<path d="M70.4939 23.6004C69.0229 23.6004 67.6916 23.2653 66.4999 22.5949C65.3268 21.9246 64.3958 21.0122 63.7068 19.8578C63.0179 18.6847 62.6734 17.3813 62.6734 15.9475C62.6734 14.4951 63.0179 13.1917 63.7068 12.0372C64.3958 10.8828 65.3268 9.97036 66.4999 9.30003C67.6916 8.61108 69.0229 8.2666 70.4939 8.2666C71.7042 8.2666 72.8587 8.50867 73.9573 8.9928C75.0559 9.4583 75.9869 10.1286 76.7504 11.0038L73.9852 13.8806C73.4639 13.2848 72.9332 12.8565 72.3932 12.5958C71.8532 12.3165 71.2574 12.1769 70.6056 12.1769C69.9539 12.1769 69.3674 12.3445 68.846 12.6796C68.3247 12.9962 67.915 13.4431 67.6171 14.0203C67.3192 14.5789 67.1702 15.2213 67.1702 15.9475C67.1702 16.6551 67.3192 17.2975 67.6171 17.8747C67.9336 18.4333 68.3619 18.8802 68.9019 19.2154C69.4419 19.5319 70.047 19.6902 70.7174 19.6902C71.3318 19.6902 71.8998 19.5598 72.4211 19.2991C72.9425 19.0385 73.4452 18.6381 73.9294 18.0981L76.6107 20.8912C75.8659 21.7477 74.9535 22.418 73.8735 22.9022C72.7935 23.3677 71.667 23.6004 70.4939 23.6004Z" fill="#FFF8DE"/>
<path d="M85.9133 23.5725C84.8706 23.5725 83.9395 23.377 83.1202 22.986C82.3196 22.5949 81.6865 22.055 81.221 21.366C80.7741 20.677 80.5506 19.8857 80.5506 18.9919C80.5506 17.5768 81.0813 16.4875 82.1427 15.724C83.2227 14.942 84.7216 14.551 86.6395 14.551C87.7939 14.551 88.9112 14.6906 89.9911 14.9699V14.2437C89.9911 13.4989 89.7491 12.9496 89.2649 12.5958C88.7994 12.2234 88.1012 12.0372 87.1702 12.0372C86.5929 12.0372 85.9412 12.1303 85.215 12.3165C84.5075 12.5027 83.6695 12.8007 82.7013 13.2103L81.0813 9.88657C82.2916 9.34658 83.4554 8.94624 84.5726 8.68556C85.7085 8.40625 86.8443 8.2666 87.9802 8.2666C90.0284 8.2666 91.6204 8.76004 92.7563 9.74692C93.8921 10.7152 94.46 12.0838 94.46 13.8527V23.3211H89.9911V22.4274C89.3953 22.837 88.7622 23.1349 88.0919 23.3211C87.4402 23.4887 86.714 23.5725 85.9133 23.5725ZM84.8519 18.9081C84.8519 19.3736 85.0568 19.7367 85.4664 19.9974C85.8761 20.2581 86.444 20.3884 87.1702 20.3884C87.7102 20.3884 88.2129 20.3326 88.6784 20.2208C89.1625 20.1091 89.6001 19.9322 89.9911 19.6902V17.7909C89.5629 17.6792 89.1253 17.5954 88.6784 17.5395C88.2315 17.4837 87.7753 17.4557 87.3098 17.4557C86.5278 17.4557 85.9226 17.5861 85.4943 17.8468C85.0661 18.0888 84.8519 18.4426 84.8519 18.9081Z" fill="#FFF8DE"/>
<path d="M108.194 23.3211V3.76979L112.719 3.07153V9.57934C113.874 8.76004 115.177 8.35039 116.629 8.35039C118.045 8.35039 119.32 8.69487 120.456 9.38382C121.592 10.0542 122.495 10.9665 123.165 12.121C123.836 13.2568 124.171 14.5323 124.171 15.9475C124.171 17.3626 123.826 18.6474 123.137 19.8019C122.467 20.9377 121.545 21.8408 120.372 22.5112C119.218 23.1815 117.924 23.5166 116.49 23.5166C115.801 23.5166 115.131 23.4329 114.479 23.2653C113.827 23.0791 113.222 22.8184 112.663 22.4832V23.3211H108.194ZM115.847 19.6902C116.592 19.6902 117.253 19.5319 117.83 19.2154C118.408 18.8802 118.864 18.4333 119.199 17.8747C119.553 17.2975 119.73 16.6551 119.73 15.9475C119.73 15.2399 119.553 14.6068 119.199 14.0482C118.864 13.471 118.398 13.0241 117.803 12.7076C117.225 12.3724 116.574 12.2048 115.847 12.2048C115.214 12.2048 114.637 12.3072 114.116 12.512C113.594 12.6982 113.129 12.9869 112.719 13.3779V18.545C113.11 18.8988 113.576 19.1781 114.116 19.3829C114.656 19.5878 115.233 19.6902 115.847 19.6902Z" fill="#FFF8DE"/>
<path d="M133.955 23.5725C132.913 23.5725 131.982 23.377 131.162 22.986C130.362 22.5949 129.729 22.055 129.263 21.366C128.816 20.677 128.593 19.8857 128.593 18.9919C128.593 17.5768 129.123 16.4875 130.185 15.724C131.265 14.942 132.764 14.551 134.682 14.551C135.836 14.551 136.953 14.6906 138.033 14.9699V14.2437C138.033 13.4989 137.791 12.9496 137.307 12.5958C136.841 12.2234 136.143 12.0372 135.212 12.0372C134.635 12.0372 133.983 12.1303 133.257 12.3165C132.549 12.5027 131.712 12.8007 130.743 13.2103L129.123 9.88657C130.334 9.34658 131.497 8.94624 132.615 8.68556C133.75 8.40625 134.886 8.2666 136.022 8.2666C138.07 8.2666 139.662 8.76004 140.798 9.74692C141.934 10.7152 142.502 12.0838 142.502 13.8527V23.3211H138.033V22.4274C137.437 22.837 136.804 23.1349 136.134 23.3211C135.482 23.4887 134.756 23.5725 133.955 23.5725ZM132.894 18.9081C132.894 19.3736 133.099 19.7367 133.508 19.9974C133.918 20.2581 134.486 20.3884 135.212 20.3884C135.752 20.3884 136.255 20.3326 136.72 20.2208C137.205 20.1091 137.642 19.9322 138.033 19.6902V17.7909C137.605 17.6792 137.167 17.5954 136.72 17.5395C136.274 17.4837 135.817 17.4557 135.352 17.4557C134.57 17.4557 133.965 17.5861 133.536 17.8468C133.108 18.0888 132.894 18.4426 132.894 18.9081Z" fill="#FFF8DE"/>
<path d="M147.984 23.3211V8.54591H152.509V10.0262C152.993 9.43037 153.561 8.98349 154.213 8.68556C154.865 8.36901 155.591 8.21074 156.392 8.21074C157.192 8.22936 157.76 8.35039 158.095 8.57384V12.512C157.797 12.3631 157.462 12.2514 157.09 12.1769C156.717 12.1024 156.336 12.0651 155.945 12.0651C155.237 12.0651 154.576 12.2327 153.962 12.5679C153.366 12.8844 152.882 13.3406 152.509 13.9365V23.3211H147.984Z" fill="#FFF8DE"/>
<path d="M169.575 23.6004C168.104 23.6004 166.772 23.2653 165.58 22.5949C164.407 21.9246 163.476 21.0122 162.787 19.8578C162.098 18.6847 161.754 17.3813 161.754 15.9475C161.754 14.4951 162.098 13.1917 162.787 12.0372C163.476 10.8828 164.407 9.97036 165.58 9.30003C166.772 8.61108 168.104 8.2666 169.575 8.2666C170.785 8.2666 171.939 8.50867 173.038 8.9928C174.137 9.4583 175.068 10.1286 175.831 11.0038L173.066 13.8806C172.544 13.2848 172.014 12.8565 171.474 12.5958C170.934 12.3165 170.338 12.1769 169.686 12.1769C169.035 12.1769 168.448 12.3445 167.927 12.6796C167.405 12.9962 166.996 13.4431 166.698 14.0203C166.4 14.5789 166.251 15.2213 166.251 15.9475C166.251 16.6551 166.4 17.2975 166.698 17.8747C167.014 18.4333 167.443 18.8802 167.982 19.2154C168.522 19.5319 169.128 19.6902 169.798 19.6902C170.412 19.6902 170.98 19.5598 171.502 19.2991C172.023 19.0385 172.526 18.6381 173.01 18.0981L175.691 20.8912C174.947 21.7477 174.034 22.418 172.954 22.9022C171.874 23.3677 170.748 23.6004 169.575 23.6004Z" fill="#FFF8DE"/>
<path d="M187.238 23.6004C185.73 23.6004 184.361 23.2653 183.132 22.5949C181.922 21.906 180.963 20.9843 180.256 19.8298C179.548 18.6754 179.194 17.3813 179.194 15.9475C179.194 14.5137 179.529 13.2196 180.2 12.0651C180.889 10.9107 181.82 9.99829 182.993 9.32796C184.166 8.63901 185.469 8.29453 186.903 8.29453C188.355 8.29453 189.64 8.64832 190.757 9.35589C191.875 10.0448 192.75 10.9945 193.383 12.2048C194.035 13.4151 194.36 14.8023 194.36 16.3664V17.4837H183.831C184.035 17.9492 184.305 18.3588 184.641 18.7126C184.994 19.0664 185.413 19.3457 185.898 19.5505C186.382 19.7367 186.903 19.8298 187.462 19.8298C188.076 19.8298 188.635 19.7367 189.137 19.5505C189.64 19.3457 190.068 19.0664 190.422 18.7126L193.411 21.366C192.48 22.1481 191.521 22.716 190.534 23.0698C189.566 23.4235 188.467 23.6004 187.238 23.6004ZM183.747 14.3275H189.92C189.771 13.8434 189.538 13.4337 189.221 13.0986C188.923 12.7448 188.57 12.4748 188.16 12.2886C187.75 12.0838 187.303 11.9814 186.819 11.9814C186.316 11.9814 185.86 12.0745 185.451 12.2607C185.041 12.4469 184.687 12.7169 184.389 13.0706C184.11 13.4058 183.896 13.8248 183.747 14.3275Z" fill="#FFF8DE"/>
<path d="M199.269 23.3211V3.76979L203.793 3.07153V23.3211H199.269Z" fill="#FFF8DE"/>
<path d="M216.717 23.6004C215.209 23.6004 213.85 23.2653 212.639 22.5949C211.429 21.906 210.47 20.9843 209.763 19.8298C209.055 18.6754 208.701 17.3813 208.701 15.9475C208.701 14.5137 209.055 13.2196 209.763 12.0651C210.47 10.8921 211.429 9.97036 212.639 9.30003C213.85 8.61108 215.209 8.2666 216.717 8.2666C218.226 8.2666 219.585 8.61108 220.795 9.30003C222.005 9.97036 222.964 10.8921 223.672 12.0651C224.38 13.2196 224.733 14.5137 224.733 15.9475C224.733 17.3813 224.38 18.6754 223.672 19.8298C222.964 20.9843 222.005 21.906 220.795 22.5949C219.585 23.2653 218.226 23.6004 216.717 23.6004ZM216.717 19.6902C217.406 19.6902 218.021 19.5226 218.561 19.1874C219.101 18.8523 219.529 18.4054 219.845 17.8468C220.162 17.2695 220.32 16.6364 220.32 15.9475C220.32 15.2399 220.162 14.6068 219.845 14.0482C219.529 13.471 219.091 13.0148 218.533 12.6796C217.993 12.3445 217.388 12.1769 216.717 12.1769C216.047 12.1769 215.432 12.3445 214.874 12.6796C214.334 13.0148 213.906 13.471 213.589 14.0482C213.273 14.6068 213.114 15.2399 213.114 15.9475C213.114 16.6364 213.273 17.2695 213.589 17.8468C213.906 18.4054 214.334 18.8523 214.874 19.1874C215.432 19.5226 216.047 19.6902 216.717 19.6902Z" fill="#FFF8DE"/>
<path d="M235.486 23.6004C234.089 23.6004 232.795 23.4422 231.604 23.1256C230.412 22.7905 229.378 22.3063 228.503 21.6732L230.654 18.6288C231.585 19.1874 232.432 19.5971 233.196 19.8578C233.959 20.0998 234.713 20.2208 235.458 20.2208C236.203 20.2208 236.789 20.1184 237.218 19.9136C237.664 19.6902 237.888 19.4016 237.888 19.0478C237.888 18.7685 237.767 18.545 237.525 18.3774C237.283 18.1912 236.901 18.0609 236.38 17.9864L233.447 17.5395C231.976 17.3161 230.849 16.832 230.067 16.0871C229.304 15.3237 228.922 14.3368 228.922 13.1265C228.922 12.121 229.174 11.2645 229.676 10.5569C230.198 9.83071 230.933 9.28141 231.883 8.909C232.833 8.51798 233.968 8.32246 235.29 8.32246C236.37 8.32246 237.441 8.47143 238.502 8.76935C239.564 9.06728 240.551 9.51416 241.463 10.11L239.312 13.0148C238.512 12.5493 237.748 12.2141 237.022 12.0093C236.296 11.7858 235.57 11.6741 234.844 11.6741C234.266 11.6741 233.801 11.7765 233.447 11.9814C233.093 12.1676 232.916 12.4189 232.916 12.7355C232.916 13.0334 233.047 13.2755 233.307 13.4617C233.568 13.6293 234.015 13.7596 234.648 13.8527L237.581 14.2996C239.033 14.5044 240.15 14.9885 240.932 15.752C241.733 16.4968 242.133 17.4464 242.133 18.6009C242.133 19.5691 241.845 20.4257 241.268 21.1705C240.69 21.9153 239.899 22.5112 238.893 22.958C237.907 23.3863 236.771 23.6004 235.486 23.6004Z" fill="#FFF8DE"/>
</svg>
