<svg width="692" height="64" viewBox="0 0 692 64" fill="none" xmlns="http://www.w3.org/2000/svg">
<path d="M80.6424 7.17043L89.6796 7.17032L70.0547 56.2813L61.0176 56.2813L80.6424 7.17043Z" fill="#986F05"/>
<path d="M87.146 3.3022L96.1833 3.3021L76.5584 52.4131L67.5212 52.4131L87.146 3.3022Z" fill="#FFF8DE"/>
<path d="M7.17043 41.9899L7.17032 32.9527L56.2813 52.5775L56.2813 61.6147L7.17043 41.9899Z" fill="#986F05"/>
<path d="M3.3022 35.4862L3.3021 26.449L52.4131 46.0739L52.4131 55.1111L3.3022 35.4862Z" fill="#FFF8DE"/>
<path d="M7.17043 28.5599L7.17032 39.1781L56.2813 16.1201L56.2813 5.50198L7.17043 28.5599Z" fill="#986F05"/>
<path d="M3.3022 24.743L3.3021 35.3611L52.4131 12.3031L52.4131 1.68503L3.3022 24.743Z" fill="#FFF8DE"/>
<path d="M684.413 21.059L684.413 30.0962L635.302 10.4713L635.302 1.43415L684.413 21.059Z" fill="#986F05"/>
<path d="M688.281 27.5627L688.281 36.5999L639.17 16.975L639.17 7.93782L688.281 27.5627Z" fill="#FFF8DE"/>
<path d="M684.413 34.489L684.413 23.8708L635.302 46.9288L635.302 57.5469L684.413 34.489Z" fill="#986F05"/>
<path d="M688.281 38.3059L688.281 27.6878L639.17 50.7457L639.17 61.3639L688.281 38.3059Z" fill="#FFF8DE"/>
<g filter="url(#filter0_d_6_633)">
<path d="M118.288 51.448C114.235 51.448 111.163 50.552 109.072 48.76C107.024 46.9253 106 44.2373 106 40.696V25.784H99.152V17.144H106V8.44001L116.368 6.2V17.144H125.84V25.784H116.368V38.648C116.368 40.1413 116.688 41.208 117.328 41.848C118.011 42.4453 119.184 42.744 120.848 42.744C121.701 42.744 122.469 42.7013 123.152 42.616C123.877 42.488 124.667 42.296 125.52 42.04V50.424C124.581 50.7227 123.387 50.9573 121.936 51.128C120.485 51.3413 119.269 51.448 118.288 51.448Z" fill="#FFF8DE"/>
<path d="M149.536 51.64C146.89 51.64 144.544 51.064 142.496 49.912C140.49 48.76 138.912 47.16 137.76 45.112C136.608 43.0213 136.032 40.6533 136.032 38.008V17.144H146.4V36.6C146.4 38.4347 146.954 39.928 148.064 41.08C149.216 42.1893 150.709 42.744 152.544 42.744C153.866 42.744 155.04 42.5093 156.064 42.04C157.088 41.5707 157.941 40.9093 158.624 40.056V17.144H168.992V51H158.624V48.696C156.064 50.6587 153.034 51.64 149.536 51.64Z" fill="#FFF8DE"/>
<path d="M198.197 51.64C194.826 51.64 191.775 50.872 189.045 49.336C186.357 47.8 184.223 45.7093 182.645 43.064C181.066 40.376 180.277 37.3893 180.277 34.104C180.277 30.776 181.066 27.7893 182.645 25.144C184.223 22.4987 186.357 20.408 189.045 18.872C191.775 17.2933 194.826 16.504 198.197 16.504C200.97 16.504 203.615 17.0587 206.133 18.168C208.65 19.2347 210.783 20.7707 212.533 22.776L206.197 29.368C205.002 28.0027 203.786 27.0213 202.549 26.424C201.311 25.784 199.946 25.464 198.453 25.464C196.959 25.464 195.615 25.848 194.421 26.616C193.226 27.3413 192.287 28.3653 191.605 29.688C190.922 30.968 190.581 32.44 190.581 34.104C190.581 35.7253 190.922 37.1973 191.605 38.52C192.33 39.8 193.311 40.824 194.549 41.592C195.786 42.3173 197.173 42.68 198.709 42.68C200.117 42.68 201.418 42.3813 202.613 41.784C203.807 41.1867 204.959 40.2693 206.069 39.032L212.213 45.432C210.506 47.3947 208.415 48.9307 205.941 50.04C203.466 51.1067 200.885 51.64 198.197 51.64Z" fill="#FFF8DE"/>
<path d="M233.529 51.576C231.139 51.576 229.006 51.128 227.129 50.232C225.294 49.336 223.843 48.0987 222.777 46.52C221.753 44.9413 221.241 43.128 221.241 41.08C221.241 37.8373 222.457 35.3413 224.889 33.592C227.363 31.8 230.798 30.904 235.193 30.904C237.838 30.904 240.398 31.224 242.873 31.864V30.2C242.873 28.4933 242.318 27.2347 241.209 26.424C240.142 25.5707 238.542 25.144 236.409 25.144C235.086 25.144 233.593 25.3573 231.929 25.784C230.307 26.2107 228.387 26.8933 226.169 27.832L222.457 20.216C225.23 18.9787 227.897 18.0613 230.457 17.464C233.059 16.824 235.662 16.504 238.265 16.504C242.958 16.504 246.606 17.6347 249.209 19.896C251.811 22.1147 253.113 25.2507 253.113 29.304V51H242.873V48.952C241.507 49.8907 240.057 50.5733 238.521 51C237.027 51.384 235.363 51.576 233.529 51.576ZM231.097 40.888C231.097 41.9547 231.566 42.7867 232.505 43.384C233.443 43.9813 234.745 44.28 236.409 44.28C237.646 44.28 238.798 44.152 239.865 43.896C240.974 43.64 241.977 43.2347 242.873 42.68V38.328C241.891 38.072 240.889 37.88 239.865 37.752C238.84 37.624 237.795 37.56 236.729 37.56C234.936 37.56 233.55 37.8587 232.569 38.456C231.587 39.0107 231.097 39.8213 231.097 40.888Z" fill="#FFF8DE"/>
<path d="M279.051 51.64C275.851 51.64 272.886 51.2773 270.155 50.552C267.424 49.784 265.056 48.6747 263.051 47.224L267.979 40.248C270.112 41.528 272.054 42.4667 273.803 43.064C275.552 43.6187 277.28 43.896 278.987 43.896C280.694 43.896 282.038 43.6613 283.019 43.192C284.043 42.68 284.555 42.0187 284.555 41.208C284.555 40.568 284.278 40.056 283.723 39.672C283.168 39.2453 282.294 38.9467 281.099 38.776L274.379 37.752C271.008 37.24 268.427 36.1307 266.635 34.424C264.886 32.6747 264.011 30.4133 264.011 27.64C264.011 25.336 264.587 23.3733 265.739 21.752C266.934 20.088 268.619 18.8293 270.795 17.976C272.971 17.08 275.574 16.632 278.603 16.632C281.078 16.632 283.531 16.9733 285.963 17.656C288.395 18.3387 290.656 19.3627 292.747 20.728L287.819 27.384C285.984 26.3173 284.235 25.5493 282.571 25.08C280.907 24.568 279.243 24.312 277.579 24.312C276.256 24.312 275.19 24.5467 274.379 25.016C273.568 25.4427 273.163 26.0187 273.163 26.744C273.163 27.4267 273.462 27.9813 274.059 28.408C274.656 28.792 275.68 29.0907 277.131 29.304L283.851 30.328C287.179 30.7973 289.739 31.9067 291.531 33.656C293.366 35.3627 294.283 37.5387 294.283 40.184C294.283 42.4027 293.622 44.3653 292.299 46.072C290.976 47.7787 289.163 49.144 286.859 50.168C284.598 51.1493 281.995 51.64 279.051 51.64Z" fill="#FFF8DE"/>
<path d="M323.538 51V6.2L333.906 4.60001V19.512C336.551 17.6347 339.538 16.696 342.866 16.696C346.108 16.696 349.031 17.4853 351.633 19.064C354.236 20.6 356.305 22.6907 357.841 25.336C359.378 27.9387 360.146 30.8613 360.146 34.104C360.146 37.3467 359.356 40.2907 357.777 42.936C356.241 45.5387 354.13 47.608 351.441 49.144C348.796 50.68 345.831 51.448 342.546 51.448C340.967 51.448 339.431 51.256 337.938 50.872C336.444 50.4453 335.057 49.848 333.777 49.08V51H323.538ZM341.074 42.68C342.78 42.68 344.295 42.3173 345.618 41.592C346.94 40.824 347.986 39.8 348.754 38.52C349.564 37.1973 349.969 35.7253 349.969 34.104C349.969 32.4827 349.564 31.032 348.754 29.752C347.986 28.4293 346.919 27.4053 345.553 26.68C344.231 25.912 342.738 25.528 341.074 25.528C339.623 25.528 338.3 25.7627 337.105 26.232C335.911 26.6587 334.844 27.32 333.906 28.216V40.056C334.801 40.8667 335.868 41.5067 337.105 41.976C338.343 42.4453 339.665 42.68 341.074 42.68Z" fill="#FFF8DE"/>
<path d="M382.566 51.576C380.177 51.576 378.043 51.128 376.166 50.232C374.331 49.336 372.881 48.0987 371.814 46.52C370.79 44.9413 370.278 43.128 370.278 41.08C370.278 37.8373 371.494 35.3413 373.926 33.592C376.401 31.8 379.835 30.904 384.23 30.904C386.875 30.904 389.435 31.224 391.91 31.864V30.2C391.91 28.4933 391.355 27.2347 390.246 26.424C389.179 25.5707 387.579 25.144 385.446 25.144C384.123 25.144 382.63 25.3573 380.966 25.784C379.345 26.2107 377.425 26.8933 375.206 27.832L371.494 20.216C374.267 18.9787 376.934 18.0613 379.494 17.464C382.097 16.824 384.699 16.504 387.302 16.504C391.995 16.504 395.643 17.6347 398.246 19.896C400.849 22.1147 402.15 25.2507 402.15 29.304V51H391.91V48.952C390.545 49.8907 389.094 50.5733 387.558 51C386.065 51.384 384.401 51.576 382.566 51.576ZM380.134 40.888C380.134 41.9547 380.603 42.7867 381.542 43.384C382.481 43.9813 383.782 44.28 385.446 44.28C386.683 44.28 387.835 44.152 388.902 43.896C390.011 43.64 391.014 43.2347 391.91 42.68V38.328C390.929 38.072 389.926 37.88 388.902 37.752C387.878 37.624 386.833 37.56 385.766 37.56C383.974 37.56 382.587 37.8587 381.606 38.456C380.625 39.0107 380.134 39.8213 380.134 40.888Z" fill="#FFF8DE"/>
<path d="M414.713 51V17.144H425.081V20.536C426.19 19.1707 427.491 18.1467 428.985 17.464C430.478 16.7387 432.142 16.376 433.977 16.376C435.811 16.4187 437.113 16.696 437.881 17.208V26.232C437.198 25.8907 436.43 25.6347 435.577 25.464C434.723 25.2933 433.849 25.208 432.953 25.208C431.331 25.208 429.816 25.592 428.409 26.36C427.043 27.0853 425.934 28.1307 425.081 29.496V51H414.713Z" fill="#FFF8DE"/>
<path d="M464.184 51.64C460.813 51.64 457.763 50.872 455.032 49.336C452.344 47.8 450.211 45.7093 448.632 43.064C447.053 40.376 446.264 37.3893 446.264 34.104C446.264 30.776 447.053 27.7893 448.632 25.144C450.211 22.4987 452.344 20.408 455.032 18.872C457.763 17.2933 460.813 16.504 464.184 16.504C466.957 16.504 469.603 17.0587 472.12 18.168C474.637 19.2347 476.771 20.7707 478.52 22.776L472.184 29.368C470.989 28.0027 469.773 27.0213 468.536 26.424C467.299 25.784 465.933 25.464 464.44 25.464C462.947 25.464 461.603 25.848 460.408 26.616C459.213 27.3413 458.275 28.3653 457.592 29.688C456.909 30.968 456.568 32.44 456.568 34.104C456.568 35.7253 456.909 37.1973 457.592 38.52C458.317 39.8 459.299 40.824 460.536 41.592C461.773 42.3173 463.16 42.68 464.696 42.68C466.104 42.68 467.405 42.3813 468.6 41.784C469.795 41.1867 470.947 40.2693 472.056 39.032L478.2 45.432C476.493 47.3947 474.403 48.9307 471.928 50.04C469.453 51.1067 466.872 51.64 464.184 51.64Z" fill="#FFF8DE"/>
<path d="M504.659 51.64C501.203 51.64 498.067 50.872 495.251 49.336C492.477 47.7573 490.28 45.6453 488.659 43C487.037 40.3547 486.227 37.3893 486.227 34.104C486.227 30.8187 486.995 27.8533 488.531 25.208C490.109 22.5627 492.243 20.472 494.931 18.936C497.618 17.3573 500.605 16.568 503.891 16.568C507.219 16.568 510.163 17.3787 512.723 19C515.283 20.5787 517.288 22.7547 518.739 25.528C520.232 28.3013 520.979 31.48 520.979 35.064V37.624H496.85C497.32 38.6907 497.939 39.6293 498.707 40.44C499.517 41.2507 500.477 41.8907 501.587 42.36C502.696 42.7867 503.891 43 505.171 43C506.578 43 507.858 42.7867 509.01 42.36C510.163 41.8907 511.144 41.2507 511.954 40.44L518.803 46.52C516.669 48.312 514.472 49.6133 512.211 50.424C509.992 51.2347 507.475 51.64 504.659 51.64ZM496.659 30.392H510.803C510.461 29.2827 509.928 28.344 509.203 27.576C508.52 26.7653 507.709 26.1467 506.771 25.72C505.832 25.2507 504.808 25.016 503.699 25.016C502.547 25.016 501.501 25.2293 500.562 25.656C499.624 26.0827 498.813 26.7013 498.131 27.512C497.491 28.28 497 29.24 496.659 30.392Z" fill="#FFF8DE"/>
<path d="M532.225 51V6.2L542.593 4.60001V51H532.225Z" fill="#FFF8DE"/>
<path d="M572.207 51.64C568.751 51.64 565.636 50.872 562.863 49.336C560.09 47.7573 557.892 45.6453 556.271 43C554.65 40.3547 553.839 37.3893 553.839 34.104C553.839 30.8187 554.65 27.8533 556.271 25.208C557.892 22.52 560.09 20.408 562.863 18.872C565.636 17.2933 568.751 16.504 572.207 16.504C575.663 16.504 578.778 17.2933 581.551 18.872C584.324 20.408 586.522 22.52 588.143 25.208C589.764 27.8533 590.575 30.8187 590.575 34.104C590.575 37.3893 589.764 40.3547 588.143 43C586.522 45.6453 584.324 47.7573 581.551 49.336C578.778 50.872 575.663 51.64 572.207 51.64ZM572.207 42.68C573.786 42.68 575.194 42.296 576.431 41.528C577.668 40.76 578.65 39.736 579.375 38.456C580.1 37.1333 580.463 35.6827 580.463 34.104C580.463 32.4827 580.1 31.032 579.375 29.752C578.65 28.4293 577.647 27.384 576.367 26.616C575.13 25.848 573.743 25.464 572.207 25.464C570.671 25.464 569.263 25.848 567.983 26.616C566.746 27.384 565.764 28.4293 565.039 29.752C564.314 31.032 563.951 32.4827 563.951 34.104C563.951 35.6827 564.314 37.1333 565.039 38.456C565.764 39.736 566.746 40.76 567.983 41.528C569.263 42.296 570.671 42.68 572.207 42.68Z" fill="#FFF8DE"/>
<path d="M615.214 51.64C612.014 51.64 609.048 51.2773 606.318 50.552C603.587 49.784 601.219 48.6747 599.214 47.224L604.142 40.248C606.275 41.528 608.216 42.4667 609.966 43.064C611.715 43.6187 613.443 43.896 615.15 43.896C616.856 43.896 618.2 43.6613 619.182 43.192C620.206 42.68 620.717 42.0187 620.717 41.208C620.717 40.568 620.44 40.056 619.886 39.672C619.331 39.2453 618.456 38.9467 617.262 38.776L610.542 37.752C607.171 37.24 604.59 36.1307 602.798 34.424C601.048 32.6747 600.174 30.4133 600.174 27.64C600.174 25.336 600.75 23.3733 601.902 21.752C603.096 20.088 604.782 18.8293 606.958 17.976C609.134 17.08 611.736 16.632 614.766 16.632C617.24 16.632 619.694 16.9733 622.126 17.656C624.558 18.3387 626.819 19.3627 628.91 20.728L623.982 27.384C622.147 26.3173 620.398 25.5493 618.734 25.08C617.07 24.568 615.406 24.312 613.742 24.312C612.419 24.312 611.352 24.5467 610.542 25.016C609.731 25.4427 609.326 26.0187 609.326 26.744C609.326 27.4267 609.624 27.9813 610.222 28.408C610.819 28.792 611.843 29.0907 613.294 29.304L620.014 30.328C623.342 30.7973 625.902 31.9067 627.694 33.656C629.528 35.3627 630.446 37.5387 630.446 40.184C630.446 42.4027 629.784 44.3653 628.462 46.072C627.139 47.7787 625.326 49.144 623.022 50.168C620.76 51.1493 618.158 51.64 615.214 51.64Z" fill="#FFF8DE"/>
</g>
<defs>
<filter id="filter0_d_6_633" x="94.152" y="4.60001" width="536.294" height="51.04" filterUnits="userSpaceOnUse" color-interpolation-filters="sRGB">
<feFlood flood-opacity="0" result="BackgroundImageFix"/>
<feColorMatrix in="SourceAlpha" type="matrix" values="0 0 0 0 0 0 0 0 0 0 0 0 0 0 0 0 0 0 127 0" result="hardAlpha"/>
<feOffset dx="-5" dy="4"/>
<feComposite in2="hardAlpha" operator="out"/>
<feColorMatrix type="matrix" values="0 0 0 0 0.596078 0 0 0 0 0.435294 0 0 0 0 0.0196078 0 0 0 1 0"/>
<feBlend mode="normal" in2="BackgroundImageFix" result="effect1_dropShadow_6_633"/>
<feBlend mode="normal" in="SourceGraphic" in2="effect1_dropShadow_6_633" result="shape"/>
</filter>
</defs>
</svg>
